<?xml version="1.0" encoding="utf-8"?>
<!-- Generator: Adobe Illustrator 21.1.0, SVG Export Plug-In . SVG Version: 6.00 Build 0)  -->
<svg version="1.1" id="Layer_1" xmlns="http://www.w3.org/2000/svg" xmlns:xlink="http://www.w3.org/1999/xlink" x="0px" y="0px"
	 viewBox="0 0 1003.6 414.1" style="enable-background:new 0 0 1003.6 414.1;" xml:space="preserve">
<style type="text/css">
	.st0{fill:#FFFFFF;}
	.st1{fill:#00ACED;}
</style>
<g id="Artwork_15">
	<g>
		<g>
			<path class="st0" d="M961,310.1V93.9c0-3.1-2.9-2.9-2.9-2.9H212.5c0,0-1.5,0.1-1.9-0.3c-0.3-0.4-1.8-3.7-1.8-3.7
				s-28.2-64.5-30.6-68c-2.5-3.8-4.3,0.8-4.3,0.8l-27.6,80c0,0-0.1,0.9-0.9,0.9c-0.8,0.1-93.7,5.1-99.4,5.1c-5.7,0.1-3,3.4-1.9,4.7
				c0.7,0.5,62.3,72.9,62.3,72.9s1.2,1.3,1.6,1.8c0.7,0.8,0.7,2.3,0.7,2.3s12,193.6,12.6,203.5c0.7,10.7,6.3,2.6,7.1,1.6
				c0.8-1,54.2-76.1,55.1-77.4c1.2-1.7,1.8-1.7,2.7-1.8c0.8,0,767.3,0,771.3,0C961.5,313.5,961,310.1,961,310.1 M224.9,162.8h-26.9
				v107h-31.9v-107h-26.9v-29.2h85.7V162.8z M942,298c-2.2,0-647.5,0-647.5,0s-1.9,0.2-2.9-1.7c-0.9-1.9-48.6-106.4-48.6-106.4
				s-0.2-0.4-0.2-0.5c0-0.2,0.3-0.6,0.3-0.6l54.7-81.4c0,0,0.6-0.8,1.4-0.9c0.8,0,1,0,1,0H942c0,0,1.7-0.2,1.7,1.7v188
				C943.7,296.3,943.9,298,942,298"/>
		</g>
		<polygon class="st0" points="494.9,201.5 539.7,269.1 503.3,269.2 472.5,222.9 472.5,269.8 441.8,269.8 441.8,134.3 472.5,134.3 
			472.5,178.7 512.8,133.5 534.8,156 		"/>
		<polygon class="st0" points="821.2,240.1 821.2,269.6 739.5,269.6 739.5,133.7 821,133.7 821,162 770.4,162 770.4,188.1 
			820.2,188.1 820.2,214.8 770.4,214.8 770.4,240.1 		"/>
		<polygon class="st0" points="728.5,133.6 728.5,162.8 701.7,162.8 701.7,269.7 669.7,269.7 669.7,162.8 642.8,162.8 642.8,133.6 
					"/>
		<polygon class="st0" points="631.9,240.1 631.9,269.6 550.1,269.6 550.1,133.7 631.7,133.7 631.7,162 581.1,162 581.1,188.1 
			630.8,188.1 630.8,214.7 581.1,214.7 581.1,240.1 		"/>
		<polygon class="st0" points="886.4,201.5 931.1,269.1 894.8,269.2 863.9,222.9 863.9,269.8 833.2,269.8 833.2,134.3 863.9,134.3 
			863.9,178.7 904.3,133.5 926.3,156 		"/>
		<g>
			<path class="st0" d="M411.3,229.3l17.8,23.8c-19.5,15.9-30.1,17.7-47.6,16.1c-16.2-1.5-33.4-18.6-40.3-36.9
				c-6.9-18.3-5.5-38.7-4.8-40.8c0.7-2.1,3.7-40.7,36.7-55.4c27.2-9.5,51.9,10.9,51.9,10.9l-14.4,25.7c-15.3-9.7-29.2-7.4-38.8,7.1
				c-11.5,17.4-2.3,40.6-2.3,40.6s7,16.7,20.4,16.7C403.5,237.1,411.3,229.3,411.3,229.3"/>
		</g>
		<rect x="292.4" y="133.9" class="st0" width="30.7" height="135.5"/>
	</g>
</g>
</svg>
